<svg xmlns="http://www.w3.org/2000/svg" width="500" height="500" style="width:100%;height:100%;transform:translate3d(0,0,0);content-visibility:visible" viewBox="0 0 500 500"><defs><clipPath id="a"><path d="M0 0h500v500H0z"/></clipPath></defs><g clip-path="url(#a)"><path fill="none" stroke="#121330" stroke-linecap="round" stroke-linejoin="round" stroke-width="12" d="m0-66.609 21.643 43.853 48.394 7.032L35.018 18.41l8.267 48.199L0 43.853l-43.285 22.756 8.267-48.199-35.019-34.134 48.394-7.032L0-66.609z" style="display:block" transform="translate(340.09 342.838)"/><path fill="none" stroke="#000" stroke-linecap="round" stroke-linejoin="round" stroke-width="12" d="M12.243-12.243 34.63 0 12.243 12.243 0 34.63l-12.243-22.387L-34.63 0l22.387-12.243L0-34.63l12.243 22.387z" style="display:block" transform="translate(329.66 167.94)"/><path fill="none" stroke="#000" stroke-linecap="round" stroke-linejoin="round" stroke-width="12" d="M12.243-12.243 34.63 0 12.243 12.243 0 34.63l-12.243-22.387L-34.63 0l22.387-12.243L0-34.63l12.243 22.387z" style="display:block" transform="translate(170.282 327.116)"/><g fill="none" stroke-dasharray="100 160" stroke-linecap="round" stroke-linejoin="round" stroke-width="12" style="display:block"><path stroke="#000" stroke-dashoffset="140" d="m228.595 306.523-141.69-142.69"/><path stroke="#121330" stroke-dashoffset="10" d="m228.595 306.523-141.69-142.69"/></g><g fill="none" stroke-dasharray="100 160" stroke-linecap="round" stroke-linejoin="round" stroke-width="12" style="display:block"><path stroke="#000" stroke-dashoffset="184" d="m318.595 238.523-141.69-142.69"/><path stroke="#121330" stroke-dashoffset="54" d="m318.595 238.523-141.69-142.69"/></g><path fill="none" stroke="#121330" stroke-dasharray="54 100" stroke-dashoffset="-81" stroke-linecap="round" stroke-linejoin="round" stroke-width="12" d="m76.368 77.217-96.105-97.565" style="display:block" transform="translate(222.66 380.44)"/><path fill="none" stroke="#121330" stroke-dasharray="178 26" stroke-dashoffset="-97" stroke-linecap="round" stroke-linejoin="round" stroke-width="12" d="m-85.709-85.206-45.386-46.784" style="display:block" transform="translate(222.66 380.44)"/><path fill="none" stroke="#121330" stroke-dasharray="54 100" stroke-dashoffset="-81" stroke-linecap="round" stroke-linejoin="round" stroke-width="12" d="m76.368 77.217-96.105-97.565" style="display:block" transform="translate(382.66 222.44)"/><path fill="none" stroke="#121330" stroke-dasharray="178 26" stroke-dashoffset="-55" stroke-linecap="round" stroke-linejoin="round" stroke-width="12" d="m-85.709-85.206-45.386-46.784" style="display:block" transform="translate(382.66 222.44)"/><path fill="none" stroke="#121330" stroke-dasharray="339 30" stroke-dashoffset="254" stroke-linecap="round" stroke-linejoin="round" stroke-width="12" d="M-142.502-143.044 61.273 61.273" style="display:block" transform="translate(233.09 231.838)"/><path style="display:none"/></g></svg>